<?xml version="1.0" encoding="UTF-8"?>
<svg xmlns="http://www.w3.org/2000/svg" xml:space="preserve" version="1.1"
  viewBox="0 0 14902 15479"
  style="shape-rendering:geometricPrecision;fill-rule:evenodd;clip-rule:evenodd">
  <!-- Official 2GIS brand mark: the green circle/pin icon only (cropped from full wordmark SVG) -->
  <path fill="#29B24A" fill-rule="nonzero" d="M11081.41 9218.29c-2695.72,13.7 -3131.78,1697.02 -3277.11,3120.34l-66.06 629.52 -541.83 0 -66.06 -629.52c-145.33,-1423.32 -594.61,-3106.65 -3197.84,-3120.34c-436.06,-930.68 -621.06,-1683.39 -621.06,-2531.9 0,-2121.25 1678.22,-4105.74 4162.45,-4105.74 2484.28,0 4136.06,1970.73 4136.06,4119.49 0.01,834.76 -79.27,1587.47 -528.55,2518.15zm-3633.89 -9210.56c-4096.39,0 -7452.84,3476.21 -7452.84,7732.41 0,4270.01 3356.45,7746.16 7452.84,7746.16 4136,0 7479.23,-3476.15 7479.23,-7746.16 0,-4256.19 -3343.23,-7732.41 -7479.23,-7732.41z"/>
</svg>
